<svg width="113" height="83" viewBox="0 0 113 83" xmlns="http://www.w3.org/2000/svg" preserveAspectRatio="none">
<path fill-rule="evenodd" clip-rule="evenodd" d="M0.497192 2.50005C0.497195 2.5 0.498145 2.5 0.499979 2.5V0.5C0.787565 0.5 1.18001 0.581311 1.56637 0.675624C1.9902 0.779085 2.52644 0.929734 3.1581 1.12263L2.57398 3.03543C1.96201 2.84855 1.46531 2.70968 1.09208 2.61857C0.905196 2.57295 0.757538 2.54135 0.646746 2.52169C0.540281 2.5028 0.497177 2.50036 0.497192 2.50005ZM11.7656 6.32663C10.1007 5.67337 8.56274 5.09463 7.18725 4.59697L7.86771 2.71628C9.26086 3.22033 10.8155 3.8054 12.4961 4.46482L11.7656 6.32663ZM20.8176 10.1095C19.2678 9.42287 17.7596 8.77493 16.3099 8.16881L17.0813 6.32359C18.5436 6.93494 20.0646 7.58841 21.6277 8.28088L20.8176 10.1095ZM29.6904 14.2728C28.2083 13.536 26.7345 12.8257 25.2814 12.1442L26.1306 10.3335C27.5967 11.021 29.0842 11.7379 30.5808 12.4819L29.6904 14.2728ZM38.3449 18.8578C36.9251 18.0537 35.4904 17.2701 34.0519 16.5091L34.9872 14.7413C36.4413 15.5106 37.8928 16.3034 39.3305 17.1175L38.3449 18.8578ZM46.6762 23.9643C45.3392 23.0711 43.9631 22.1942 42.5595 21.336L43.6027 19.6297C45.0272 20.5006 46.426 21.3919 47.7873 22.3014L46.6762 23.9643ZM54.4625 29.7788C53.2648 28.762 51.9936 27.7578 50.6627 26.7687L51.8556 25.1634C53.2171 26.1752 54.5225 27.2063 55.7568 28.254L54.4625 29.7788ZM61.1754 36.6707C60.2562 35.4622 59.1978 34.2581 58.0192 33.0629L59.4432 31.6586C60.6721 32.9048 61.7886 34.1731 62.7673 35.4598L61.1754 36.6707ZM64.5491 42.8096C64.3173 42.0978 64.0255 41.3827 63.6763 40.6651L65.4748 39.7901C65.8606 40.5832 66.1882 41.3836 66.4509 42.1904C66.7122 42.9931 67.0021 43.7805 67.3187 44.5531L65.4681 45.3115C65.1331 44.4941 64.826 43.6602 64.5491 42.8096ZM70.7834 54.4735C69.7121 53.0696 68.7209 51.6045 67.8273 50.0746L69.5544 49.0659C70.4035 50.5198 71.3482 51.9167 72.3734 53.2602L70.7834 54.4735ZM77.991 62.159C76.6796 60.9909 75.4134 59.7707 74.2093 58.4946L75.6639 57.122C76.8246 58.352 78.0489 59.5321 79.3213 60.6656L77.991 62.159ZM86.2771 68.5795C84.8453 67.6003 83.4263 66.5769 82.037 65.5055L83.2582 63.9217C84.6141 64.9672 86.0019 65.9684 87.4061 66.9286L86.2771 68.5795ZM95.1392 74.0962C93.6619 73.2477 92.1621 72.3596 90.6589 71.4278L91.7126 69.7279C93.1934 70.6457 94.6735 71.5224 96.1352 72.3618L95.1392 74.0962ZM103.492 78.6926C102.267 78.0342 100.989 77.3476 99.6774 76.6315L100.636 74.8761C101.942 75.5893 103.214 76.2727 104.439 76.9314C104.692 77.067 104.942 77.2016 105.191 77.3352L104.243 79.0966C103.995 78.9631 103.745 78.8285 103.492 78.6926ZM110.984 82.8565C110.295 82.4416 109.557 82.0144 108.774 81.5731L109.756 79.8307C110.551 80.2787 111.307 80.7159 112.016 81.1435L110.984 82.8565Z" fill="url(#paint0_linear_81)"/>
<circle cx="64.5" cy="41.5" r="11.5" fill="url(#paint1_linear_81)"/>
<defs>
<linearGradient id="paint0_linear_81" x1="130.125" y1="-17.9933" x2="-12.1353" y2="28.7156" gradientUnits="userSpaceOnUse">
<stop stop-color="white"/>
<stop offset="0.411458" stop-color="#FE650E"/>
<stop offset="1" stop-color="#FEBC5A"/>
</linearGradient>
<linearGradient id="paint1_linear_81" x1="79.7348" y1="24.8353" x2="49.0365" y2="32.2788" gradientUnits="userSpaceOnUse">
<stop stop-color="white"/>
<stop offset="0.411458" stop-color="#FE650E"/>
<stop offset="1" stop-color="#FEBC5A"/>
</linearGradient>
</defs>
</svg>
