<svg width="112" height="83" viewBox="0 0 112 83" xmlns="http://www.w3.org/2000/svg" preserveAspectRatio="none">
<path fill-rule="evenodd" clip-rule="evenodd" d="M111.519 2.50005C111.519 2.5 111.518 2.5 111.516 2.5V0.5C111.229 0.5 110.836 0.581311 110.45 0.675624C110.026 0.779085 109.49 0.929734 108.858 1.12263L109.442 3.03543C110.054 2.84855 110.551 2.70968 110.924 2.61857C111.111 2.57295 111.259 2.54135 111.369 2.52169C111.476 2.5028 111.519 2.50036 111.519 2.50005ZM100.251 6.32663C101.916 5.67337 103.453 5.09463 104.829 4.59697L104.149 2.71628C102.755 3.22033 101.201 3.8054 99.5201 4.46482L100.251 6.32663ZM91.1987 10.1095C92.7484 9.42287 94.2566 8.77493 95.7064 8.16881L94.9349 6.32359C93.4727 6.93494 91.9516 7.58841 90.3886 8.28088L91.1987 10.1095ZM82.3258 14.2728C83.808 13.536 85.2817 12.8257 86.7348 12.1442L85.8856 10.3335C84.4195 11.021 82.932 11.7379 81.4355 12.4819L82.3258 14.2728ZM73.6714 18.8578C75.0912 18.0537 76.5259 17.2701 77.9643 16.5091L77.029 14.7413C75.5749 15.5106 74.1234 16.3034 72.6858 17.1175L73.6714 18.8578ZM65.34 23.9643C66.677 23.0711 68.0531 22.1942 69.4568 21.336L68.4135 19.6297C66.9891 20.5006 65.5902 21.3919 64.2289 22.3014L65.34 23.9643ZM57.5538 29.7788C58.7515 28.762 60.0227 27.7578 61.3536 26.7687L60.1606 25.1634C58.7992 26.1752 57.4937 27.2063 56.2594 28.254L57.5538 29.7788ZM50.8408 36.6707C51.76 35.4622 52.8184 34.2581 53.9971 33.0629L52.573 31.6586C51.3441 32.9048 50.2277 34.1731 49.249 35.4598L50.8408 36.6707ZM47.4671 42.8096C47.6989 42.0978 47.9908 41.3827 48.3399 40.6651L46.5415 39.7901C46.1556 40.5832 45.8281 41.3836 45.5654 42.1904C45.304 42.9931 45.0141 43.7805 44.6975 44.5531L46.5481 45.3115C46.8832 44.4941 47.1902 43.6602 47.4671 42.8096ZM41.2328 54.4735C42.3041 53.0696 43.2954 51.6045 44.1889 50.0746L42.4619 49.0659C41.6128 50.5198 40.668 51.9167 39.6428 53.2602L41.2328 54.4735ZM34.0252 62.159C35.3366 60.9909 36.6028 59.7707 37.8069 58.4946L36.3523 57.122C35.1916 58.352 33.9674 59.5321 32.6949 60.6656L34.0252 62.159ZM25.7392 68.5795C27.1709 67.6003 28.5899 66.5769 29.9793 65.5055L28.758 63.9217C27.4021 64.9672 26.0143 65.9684 24.6102 66.9286L25.7392 68.5795ZM16.8771 74.0962C18.3544 73.2477 19.8541 72.3596 21.3574 71.4278L20.3037 69.7279C18.8228 70.6457 17.3427 71.5224 15.881 72.3618L16.8771 74.0962ZM8.52452 78.6926C9.74957 78.0342 11.0271 77.3476 12.3388 76.6315L11.3804 74.8761C10.0741 75.5893 8.80251 76.2727 7.57677 76.9314C7.32441 77.067 7.07399 77.2016 6.82561 77.3352L7.77295 79.0966C8.02113 78.9631 8.27171 78.8285 8.52452 78.6926ZM1.03248 82.8565C1.72078 82.4416 2.45923 82.0144 3.24242 81.5731L2.26059 79.8307C1.46555 80.2787 0.709473 80.7159 3.8147e-05 81.1435L1.03248 82.8565Z" fill="url(#paint0_linear_81)"/>
<circle r="11.5" transform="matrix(-1 0 0 1 47.5162 41.5)" fill="url(#paint1_linear_81)"/>
<defs>
<linearGradient id="paint0_linear_81" x1="-18.1085" y1="-17.9933" x2="124.152" y2="28.7156" gradientUnits="userSpaceOnUse">
<stop stop-color="white"/>
<stop offset="0.411458" stop-color="#FE650E"/>
<stop offset="1" stop-color="#FEBC5A"/>
</linearGradient>
<linearGradient id="paint1_linear_81" x1="26.7348" y1="-5.16469" x2="-3.96347" y2="2.27883" gradientUnits="userSpaceOnUse">
<stop stop-color="white"/>
<stop offset="0.411458" stop-color="#FE650E"/>
<stop offset="1" stop-color="#FEBC5A"/>
</linearGradient>
</defs>
</svg>
