<?xml version="1.0" encoding="utf-8"?><!DOCTYPE svg PUBLIC "-//W3C//DTD SVG 1.1//EN" "http://www.w3.org/Graphics/SVG/1.1/DTD/svg11.dtd"><svg viewBox="0 0 512.01 512.01" xmlns="http://www.w3.org/2000/svg" xmlns:xlink="http://www.w3.org/1999/xlink"><style>:root>svg{display:none}:root>svg:target{display:block}</style><svg viewBox="0 0 18 32" id="arrow_left" xmlns="http://www.w3.org/2000/svg"><path d="M.724 16.878l14.8 14.76a1.24 1.24 0 001.752-1.757L3.356 16l13.92-13.881A1.24 1.24 0 1015.525.362l-14.8 14.76a1.239 1.239 0 000 1.756z"/></svg><svg viewBox="0 0 18 32" id="arrow_right" xmlns="http://www.w3.org/2000/svg"><path d="M17.276 15.122L2.476.362A1.24 1.24 0 00.724 2.119L14.644 16 .724 29.881a1.24 1.24 0 101.751 1.757l14.801-14.76a1.239 1.239 0 000-1.756z"/></svg><svg viewBox="0 0 136 136" id="check_mark" xmlns="http://www.w3.org/2000/svg"><path d="M68 136c-37.495 0-68-30.505-68-68C0 30.505 30.505 0 68 0c37.495 0 68 30.505 68 68 0 37.495-30.505 68-68 68zM68 8.5C35.191 8.5 8.5 35.191 8.5 68s26.691 59.5 59.5 59.5 59.5-26.691 59.5-59.5S100.809 8.5 68 8.5zm-9.745 83.755l42.5-42.5a4.248 4.248 0 000-6.01 4.248 4.248 0 00-6.01 0L55.25 83.24 41.255 69.245a4.247 4.247 0 00-6.01 0 4.248 4.248 0 000 6.01l17 17A4.237 4.237 0 0055.25 93.5a4.237 4.237 0 003.005-1.245z"/></svg><svg viewBox="0 0 451.847 451.847" id="cmn--arr_1_down" xmlns="http://www.w3.org/2000/svg"><path d="M225.923 354.706c-8.098 0-16.195-3.092-22.369-9.263L9.27 151.157c-12.359-12.359-12.359-32.397 0-44.751 12.354-12.354 32.388-12.354 44.748 0l171.905 171.915 171.906-171.909c12.359-12.354 32.391-12.354 44.744 0 12.365 12.354 12.365 32.392 0 44.751L248.292 345.449c-6.177 6.172-14.274 9.257-22.369 9.257z"/></svg><svg viewBox="0 0 451.847 451.847" id="cmn--arr_1_left" xmlns="http://www.w3.org/2000/svg"><path d="M97.141 225.92c0-8.095 3.091-16.192 9.259-22.366L300.689 9.27c12.359-12.359 32.397-12.359 44.751 0 12.354 12.354 12.354 32.388 0 44.748L173.525 225.92l171.903 171.909c12.354 12.354 12.354 32.391 0 44.744-12.354 12.365-32.386 12.365-44.745 0l-194.29-194.281c-6.167-6.177-9.252-14.274-9.252-22.372z"/></svg><svg viewBox="0 0 451.846 451.847" id="cmn--arr_1_right" xmlns="http://www.w3.org/2000/svg"><path d="M345.441 248.292L151.154 442.573c-12.359 12.365-32.397 12.365-44.75 0-12.354-12.354-12.354-32.391 0-44.744L278.318 225.92 106.409 54.017c-12.354-12.359-12.354-32.394 0-44.748 12.354-12.359 32.391-12.359 44.75 0l194.287 194.284c6.177 6.18 9.262 14.271 9.262 22.366 0 8.099-3.091 16.196-9.267 22.373z"/></svg><svg viewBox="0 0 451.847 451.846" id="cmn--arr_1_up" xmlns="http://www.w3.org/2000/svg"><path d="M248.292 106.406l194.281 194.29c12.365 12.359 12.365 32.391 0 44.744-12.354 12.354-32.391 12.354-44.744 0L225.923 173.529 54.018 345.44c-12.36 12.354-32.395 12.354-44.748 0-12.359-12.354-12.359-32.391 0-44.75L203.554 106.4c6.18-6.174 14.271-9.259 22.369-9.259 8.095 0 16.192 3.091 22.369 9.265z"/></svg><svg viewBox="0 0 256 256" id="cmn--arrow_down" xmlns="http://www.w3.org/2000/svg"><path d="M225.813 48.907L128 146.72 30.187 48.907 0 79.093l128 128 128-128z"/></svg><svg viewBox="0 0 256 256" id="cmn--arrow_left" xmlns="http://www.w3.org/2000/svg"><path d="M207.093 30.187L176.907 0l-128 128 128 128 30.186-30.187L109.28 128z"/></svg><svg viewBox="0 0 256 256" id="cmn--arrow_right" xmlns="http://www.w3.org/2000/svg"><path d="M79.093 0L48.907 30.187 146.72 128l-97.813 97.813L79.093 256l128-128z"/></svg><svg viewBox="0 0 256 256" id="cmn--arrow_up" xmlns="http://www.w3.org/2000/svg"><path d="M128 48.907l-128 128 30.187 30.186L128 109.28l97.813 97.813L256 176.907z"/></svg><svg viewBox="0 0 16 16" id="cmn--badge_lock" xmlns="http://www.w3.org/2000/svg"><path fill-rule="evenodd" clip-rule="evenodd" d="M1.805.862l-.943.943 2.71 2.71c-.253.21-.502.434-.75.673A15.535 15.535 0 00.772 7.64l-.23.36.23.359c.103.161.292.432.557.777.44.57.94 1.141 1.493 1.676 1.62 1.567 3.36 2.52 5.178 2.52 1.147 0 2.263-.379 3.337-1.053l2.858 2.858.943-.942L1.805.862zm8.558 10.444l-1.008-1.008a2.667 2.667 0 01-3.652-3.652L4.52 5.463c-.258.208-.515.437-.77.683A14.218 14.218 0 002.143 8 14.216 14.216 0 003.75 9.854C5.145 11.205 6.597 12 8 12c.779 0 1.572-.245 2.363-.694zm-3.651-3.65a1.335 1.335 0 001.633 1.633L6.712 7.655zm6.687 2.938l-.943-.942A14.4 14.4 0 0013.856 8a14.22 14.22 0 00-1.605-1.854C10.855 4.796 9.403 4 8 4c-.348 0-.7.05-1.052.144L5.893 3.089A5.658 5.658 0 018 2.667c1.818 0 3.557.954 5.178 2.52a15.542 15.542 0 012.05 2.454l.23.36-.23.359c-.103.161-.292.432-.557.777-.381.493-.807.987-1.272 1.457z"/><path fill-rule="evenodd" clip-rule="evenodd" d="M1.805.862l-.943.943 2.71 2.71c-.253.21-.502.434-.75.673A15.535 15.535 0 00.772 7.64l-.23.36.23.359c.103.161.292.432.557.777.44.57.94 1.141 1.493 1.676 1.62 1.567 3.36 2.52 5.178 2.52 1.147 0 2.263-.379 3.337-1.053l2.858 2.858.943-.942L1.805.862zm8.558 10.444l-1.008-1.008a2.667 2.667 0 01-3.652-3.652L4.52 5.463c-.258.208-.515.437-.77.683A14.218 14.218 0 002.143 8 14.216 14.216 0 003.75 9.854C5.145 11.205 6.597 12 8 12c.779 0 1.572-.245 2.363-.694zm-3.651-3.65a1.335 1.335 0 001.633 1.633L6.712 7.655zm6.687 2.938l-.943-.942A14.4 14.4 0 0013.856 8a14.22 14.22 0 00-1.605-1.854C10.855 4.796 9.403 4 8 4c-.348 0-.7.05-1.052.144L5.893 3.089A5.658 5.658 0 018 2.667c1.818 0 3.557.954 5.178 2.52a15.542 15.542 0 012.05 2.454l.23.36-.23.359c-.103.161-.292.432-.557.777-.381.493-.807.987-1.272 1.457z"/></svg><svg viewBox="0 0 20 14" id="cmn--badge_unlock" xmlns="http://www.w3.org/2000/svg"><path fill-rule="evenodd" clip-rule="evenodd" d="M10 .333c2.273 0 4.447 1.192 6.472 3.151a19.43 19.43 0 011.867 2.095c.332.431.568.77.697.972l.287.449-.287.449a19.432 19.432 0 01-2.563 3.067c-2.026 1.958-4.2 3.15-6.473 3.15-2.273 0-4.446-1.192-6.472-3.15A19.424 19.424 0 011.662 8.42a14.57 14.57 0 01-.697-.971l-.287-.45.287-.448c.129-.202.365-.541.697-.972a19.42 19.42 0 011.866-2.095C5.554 1.525 7.728.333 10 .333zm7.019 6.264a17.765 17.765 0 00-1.705-1.915C13.569 2.995 11.754 2 10 2s-3.568.995-5.313 2.682A17.772 17.772 0 002.681 7a17.774 17.774 0 002.007 2.318C6.431 11.003 8.245 12 10 12c1.755 0 3.57-.996 5.314-2.683A17.767 17.767 0 0017.32 7a17.026 17.026 0 00-.301-.403zM6.667 7a3.333 3.333 0 106.666 0 3.333 3.333 0 00-6.666 0zm5 0a1.667 1.667 0 11-3.333 0 1.667 1.667 0 013.333 0z"/></svg><svg viewBox="0 0 78.369 78.369" id="cmn--check" xmlns="http://www.w3.org/2000/svg"><path d="M78.049 19.015L29.458 67.606a1.094 1.094 0 01-1.548 0L.32 40.015a1.094 1.094 0 010-1.547l6.704-6.704a1.095 1.095 0 011.548 0l20.113 20.112 41.113-41.113a1.095 1.095 0 011.548 0l6.703 6.704a1.094 1.094 0 010 1.548z"/></svg><svg viewBox="0 0 512 512" id="cmn--circle" xmlns="http://www.w3.org/2000/svg"><path d="M256 0C115.39 0 0 115.39 0 256s115.39 256 256 256 256-115.39 256-256S396.61 0 256 0z"/></svg><svg viewBox="0 0 12 12" id="cmn--close" xmlns="http://www.w3.org/2000/svg"><path d="M12 10.735L1.267 0 0 1.265 10.736 12 12 10.735z"/><path d="M12 1.265L10.735 0 0 10.735 1.265 12 12 1.265z"/></svg><svg viewBox="0 0 284.9 284.9" id="cmn--gotop" xmlns="http://www.w3.org/2000/svg"><path d="M3.5 210.8l14.4 14.1c1.9 1.9 4.1 2.8 6.6 2.8s4.7-1 6.5-2.9l111.2-113.2 113.2 111.2c1.9 1.9 4.1 2.8 6.6 2.8s4.7-1 6.5-2.9l14.1-14.4c1.9-1.9 2.8-4.1 2.8-6.6s-1-4.7-2.9-6.5l-134.1-132c-1.9-1.9-4.1-2.8-6.6-2.8s-4.7 1-6.5 2.9L3.4 197.6c-1.9 1.9-2.8 4.1-2.8 6.6.1 2.5 1 4.7 2.9 6.6z"/></svg><svg viewBox="0 0 512.002 512.002" id="cmn--rating" xmlns="http://www.w3.org/2000/svg"><path d="M511.267 197.258a14.995 14.995 0 00-12.107-10.209l-158.723-23.065-70.985-143.827a14.998 14.998 0 00-26.901 0l-70.988 143.827-158.72 23.065a14.998 14.998 0 00-8.312 25.585l114.848 111.954-27.108 158.083a14.999 14.999 0 0021.763 15.812l141.967-74.638 141.961 74.637a15 15 0 0021.766-15.813l-27.117-158.081 114.861-111.955a14.994 14.994 0 003.795-15.375z"/></svg><svg viewBox="0 0 20 20" id="cmn--search" xmlns="http://www.w3.org/2000/svg"><path fill-rule="evenodd" clip-rule="evenodd" d="M15.219 8.92a6.311 6.311 0 00-6.301-6.305 6.31 6.31 0 00-6.309 6.296 6.31 6.31 0 006.311 6.314 6.31 6.31 0 006.299-6.306zm.854 5.32l3.013 3.008.48.48c.554.557.57 1.37.039 1.895-.526.52-1.331.5-1.88-.047a2592.531 2592.531 0 01-3.315-3.318c-.06-.059-.105-.133-.153-.194a8.934 8.934 0 01-12.293-1.566c-2.848-3.552-2.577-8.685.672-11.897 3.267-3.229 8.327-3.482 11.899-.59a8.91 8.91 0 011.538 12.228z"/></svg><svg viewBox="0 0 199.404 199.404" id="cmn--select" xmlns="http://www.w3.org/2000/svg"><path d="M199.404 63.993L171.12 35.709l-71.418 71.418-71.418-71.418L0 63.993l99.702 99.702z"/></svg><svg viewBox="0 0 512.011 512.011" id="cmn--select_1" xmlns="http://www.w3.org/2000/svg"><path d="M505.755 123.592c-8.341-8.341-21.824-8.341-30.165 0L256.005 343.176 36.421 123.592c-8.341-8.341-21.824-8.341-30.165 0s-8.341 21.824 0 30.165l234.667 234.667a21.275 21.275 0 0015.083 6.251 21.275 21.275 0 0015.083-6.251l234.667-234.667c8.34-8.341 8.34-21.824-.001-30.165z"/></svg><svg viewBox="0 0 451.847 451.847" id="cmn--select_2" xmlns="http://www.w3.org/2000/svg"><path d="M225.923 354.706c-8.098 0-16.195-3.092-22.369-9.263L9.27 151.157c-12.359-12.359-12.359-32.397 0-44.751 12.354-12.354 32.388-12.354 44.748 0l171.905 171.915 171.906-171.909c12.359-12.354 32.391-12.354 44.744 0 12.365 12.354 12.365 32.392 0 44.751L248.292 345.449c-6.177 6.172-14.274 9.257-22.369 9.257z"/></svg><svg viewBox="0 0 284.929 284.929" id="cmn--select_3" xmlns="http://www.w3.org/2000/svg"><path d="M282.082 76.511l-14.274-14.273c-1.902-1.906-4.093-2.856-6.57-2.856-2.471 0-4.661.95-6.563 2.856L142.466 174.441 30.262 62.241c-1.903-1.906-4.093-2.856-6.567-2.856-2.475 0-4.665.95-6.567 2.856L2.856 76.515C.95 78.417 0 80.607 0 83.082c0 2.473.953 4.663 2.856 6.565l133.043 133.046c1.902 1.903 4.093 2.854 6.567 2.854s4.661-.951 6.562-2.854L282.082 89.647c1.902-1.903 2.847-4.093 2.847-6.565 0-2.475-.945-4.665-2.847-6.571z"/></svg><svg viewBox="0 0 23 25" id="cmn--upload" xmlns="http://www.w3.org/2000/svg"><path d="M21 11.2L10.65 21.55a5.09 5.09 0 01-7.2 0 5.09 5.09 0 010-7.2L14.7 3.1a3.183 3.183 0 014.5 4.5l-9.45 9.45a1.276 1.276 0 01-1.8 0 1.276 1.276 0 010-1.8L16.5 6.7l-1.35-1.35L6.6 13.9a3.183 3.183 0 004.5 4.5l9.45-9.45a5.09 5.09 0 000-7.2 5.09 5.09 0 00-7.2 0L2.1 13a6.996 6.996 0 000 9.9 6.996 6.996 0 009.9 0l10.35-10.35L21 11.2z"/></svg></svg>