<svg viewBox="0 0 175 903" xmlns="http://www.w3.org/2000/svg">
<path d="M-1.79922e-05 785.105L-1.94893e-05 750.855L175 750.855L175 779.105L60.75 868.605L175 868.605L175 902.605L-1.28561e-05 902.605L-1.408e-05 874.605L114.25 785.105L-1.79922e-05 785.105ZM-2.13508e-05 708.27L-2.28589e-05 673.77L175 673.77L175 708.27L-2.13508e-05 708.27ZM175 486.865L175 529.865L94.25 596.865L175 596.865L175 631.365L-2.47124e-05 631.365L-2.62204e-05 596.865L71.25 596.865L-2.89087e-05 535.365L-3.07555e-05 493.115L80.5 566.365L175 486.865ZM175 345.646L133.75 360.896L133.75 427.646L175 442.896L175 479.896L-3.43931e-05 409.896L-3.57919e-05 377.896L175 307.896L175 345.646ZM106.25 417.646L106.25 370.896L43 394.146L106.25 417.646ZM-4.42324e-05 184.799L30.75 184.799L30.75 231.799L175 231.799L175 266.299L30.75 266.299L30.75 313.049L-3.86265e-05 313.049L-4.42324e-05 184.799ZM-5.06248e-05 38.5586L-5.22749e-05 0.80858L175 70.0586L175 101.059L-4.48768e-05 170.059L-4.65487e-05 131.809L129 85.3086L-5.06248e-05 38.5586Z" fill="white" fill-opacity="0.12"/>
</svg>
