<svg viewBox="0 0 903 175" xmlns="http://www.w3.org/2000/svg">
<path d="M117.895 -1.19209e-05L152.145 -1.19209e-05L152.145 175H123.895L34.3945 60.75L34.3945 175H0.394531L0.394531 -1.19209e-05L28.3945 -1.19209e-05L117.895 114.25L117.895 -1.19209e-05ZM194.73 -1.19209e-05L229.23 -1.19209e-05L229.23 175H194.73L194.73 -1.19209e-05ZM416.135 175H373.135L306.135 94.25L306.135 175H271.635L271.635 -1.19209e-05H306.135V71.25L367.635 -1.19209e-05L409.885 -1.19209e-05L336.635 80.5L416.135 175ZM557.354 175L542.104 133.75H475.354L460.104 175H423.104L493.104 -1.19209e-05H525.104L595.104 175H557.354ZM485.354 106.25H532.104L508.854 43L485.354 106.25ZM718.201 -1.19209e-05V30.75H671.201V175H636.701V30.75H589.951V-1.19209e-05L718.201 -1.19209e-05ZM864.441 -1.19209e-05L902.191 -1.19209e-05L832.941 175H801.941L732.941 -1.19209e-05L771.191 -1.19209e-05L817.691 129L864.441 -1.19209e-05Z" fill="white" fill-opacity="0.12"/>
</svg>
