<svg width="34" height="34" viewBox="0 0 34 34" xmlns="http://www.w3.org/2000/svg">
<path d="M20.1333 18.8381C20.1333 20.0513 21.1202 21.0381 22.3333 21.0381C23.5464 21.0381 24.5333 20.0513 24.5333 18.8381C24.5333 17.625 23.5464 16.6381 22.3333 16.6381C21.1202 16.6381 20.1333 17.625 20.1333 18.8381ZM21.8666 18.8381C21.8666 18.5819 22.0771 18.3715 22.3333 18.3715C22.5895 18.3715 22.8 18.5819 22.8 18.8381C22.8 19.0943 22.5895 19.3048 22.3333 19.3048C22.0771 19.3048 21.8666 19.0943 21.8666 18.8381Z" fill="white" stroke="white" stroke-width="0.4"/>
<path d="M24.8 25.5047C24.8 25.9832 25.1882 26.3714 25.6666 26.3714C26.1451 26.3714 26.5333 25.9832 26.5333 25.5047V24.8381C26.5333 23.2569 25.2478 21.9714 23.6666 21.9714H21C19.4189 21.9714 18.1333 23.2569 18.1333 24.8381V25.5047C18.1333 25.9832 18.5215 26.3714 19 26.3714C19.4784 26.3714 19.8666 25.9832 19.8666 25.5047V24.8381C19.8666 24.2125 20.3744 23.7047 21 23.7047H23.6666C24.2922 23.7047 24.8 24.2125 24.8 24.8381V25.5047Z" fill="white" stroke="white" stroke-width="0.4"/>
<path d="M24.8 4.17147C24.8 6.12059 26.3842 7.7048 28.3333 7.7048C30.2824 7.7048 31.8667 6.12059 31.8667 4.17147C31.8667 2.22234 30.2824 0.638135 28.3333 0.638135C26.3842 0.638135 24.8 2.22234 24.8 4.17147ZM26.5333 4.17147C26.5333 3.17926 27.3411 2.37147 28.3333 2.37147C29.3255 2.37147 30.1333 3.17926 30.1333 4.17147C30.1333 5.16368 29.3255 5.97147 28.3333 5.97147C27.3411 5.97147 26.5333 5.16368 26.5333 4.17147Z" fill="white" stroke="white" stroke-width="0.4"/>
<path d="M31.7199 8.78495L31.7199 8.78495L31.7206 8.78567C31.8899 8.95322 32.1116 9.03819 32.3333 9.03819C32.5548 9.03819 32.777 8.95331 32.9454 8.78495C33.2835 8.44684 33.2835 7.89754 32.9454 7.55944L30.9454 5.55944C30.6073 5.22133 30.058 5.22133 29.7199 5.55944C29.3818 5.89754 29.3818 6.44684 29.7199 6.78495L31.7199 8.78495Z" fill="white" stroke="white" stroke-width="0.4"/>
<path d="M3 9.03813H20.3333C21.5465 9.03813 22.5333 8.05126 22.5333 6.83813V2.83813C22.5333 1.62501 21.5465 0.638135 20.3333 0.638135H3C1.78688 0.638135 0.8 1.62501 0.8 2.83813V6.83813C0.8 8.05126 1.78688 9.03813 3 9.03813ZM2.53333 2.83813C2.53333 2.58193 2.74379 2.37147 3 2.37147H20.3333C20.5895 2.37147 20.8 2.58193 20.8 2.83813V6.83813C20.8 7.09434 20.5895 7.3048 20.3333 7.3048H3C2.74379 7.3048 2.53333 7.09434 2.53333 6.83813V2.83813Z" fill="white" stroke="white" stroke-width="0.4"/>
<path d="M0.8 28.8381C0.8 31.1539 2.68421 33.0381 5 33.0381C7.31579 33.0381 9.2 31.1539 9.2 28.8381C9.2 26.5223 7.31579 24.6381 5 24.6381C2.68421 24.6381 0.8 26.5223 0.8 28.8381ZM2.53333 28.8381C2.53333 27.4779 3.63979 26.3715 5 26.3715C6.36021 26.3715 7.46667 27.4779 7.46667 28.8381C7.46667 30.1983 6.36021 31.3048 5 31.3048C3.63979 31.3048 2.53333 30.1983 2.53333 28.8381Z" fill="white" stroke="white" stroke-width="0.4"/>
<path d="M1.66667 18.3715H8.33333C8.81179 18.3715 9.2 17.9833 9.2 17.5048C9.2 17.0263 8.81179 16.6381 8.33333 16.6381H1.66667C1.18821 16.6381 0.8 17.0263 0.8 17.5048C0.8 17.9833 1.18821 18.3715 1.66667 18.3715Z" fill="white" stroke="white" stroke-width="0.4"/>
<path d="M1.66667 22.3715H8.33333C8.81179 22.3715 9.2 21.9833 9.2 21.5048C9.2 21.0263 8.81179 20.6381 8.33333 20.6381H1.66667C1.18821 20.6381 0.8 21.0263 0.8 21.5048C0.8 21.9833 1.18821 22.3715 1.66667 22.3715Z" fill="white" stroke="white" stroke-width="0.4"/>
<path d="M1.66667 14.3715H8.33333C8.81179 14.3715 9.2 13.9833 9.2 13.5048C9.2 13.0263 8.81179 12.6381 8.33333 12.6381H1.66667C1.18821 12.6381 0.8 13.0263 0.8 13.5048C0.8 13.9833 1.18821 14.3715 1.66667 14.3715Z" fill="white" stroke="white" stroke-width="0.4"/>
<path d="M13.6667 33.0382H31C32.2131 33.0382 33.2 32.0513 33.2 30.8382V13.5049C33.2 12.2918 32.2131 11.3049 31 11.3049H13.6667C12.4536 11.3049 11.4667 12.2918 11.4667 13.5049V30.8382C11.4667 32.0513 12.4536 33.0382 13.6667 33.0382ZM13.2 13.5049C13.2 13.2487 13.4105 13.0382 13.6667 13.0382H31C31.2562 13.0382 31.4667 13.2487 31.4667 13.5049V30.8382C31.4667 31.0944 31.2562 31.3049 31 31.3049H13.6667C13.4105 31.3049 13.2 31.0944 13.2 30.8382V13.5049Z" fill="white" stroke="white" stroke-width="0.4"/>
</svg>
