<svg width="48" height="49" viewBox="0 0 48 49" xmlns="http://www.w3.org/2000/svg">
<path d="M47.6949 23.9046C47.2661 23.318 37.0489 9.5415 23.9998 9.5415C10.9506 9.5415 0.732939 23.318 0.304594 23.904C-0.101531 24.4605 -0.101531 25.2153 0.304594 25.7718C0.732939 26.3584 10.9506 40.1349 23.9998 40.1349C37.0489 40.1349 47.2661 26.3583 47.6949 25.7723C48.1016 25.2159 48.1016 24.4605 47.6949 23.9046ZM23.9998 36.9701C14.3877 36.9701 6.06254 27.8264 3.59813 24.8371C6.05936 21.8453 14.367 12.7063 23.9998 12.7063C33.6114 12.7063 41.936 21.8485 44.4014 24.8393C41.9402 27.831 33.6325 36.9701 23.9998 36.9701Z" fill="#ffffff"/>
<path d="M23.9997 15.3436C18.7645 15.3436 14.5051 19.603 14.5051 24.8382C14.5051 30.0734 18.7645 34.3327 23.9997 34.3327C29.2349 34.3327 33.4942 30.0734 33.4942 24.8382C33.4942 19.603 29.2349 15.3436 23.9997 15.3436ZM23.9997 31.1678C20.5094 31.1678 17.67 28.3284 17.67 24.8382C17.67 21.348 20.5094 18.5085 23.9997 18.5085C27.4899 18.5085 30.3293 21.348 30.3293 24.8382C30.3293 28.3284 27.49 31.1678 23.9997 31.1678Z" fill="#ffffff" />
</svg>
