<svg width="32" height="34" viewBox="0 0 32 34" fill="none" xmlns="http://www.w3.org/2000/svg">
<path d="M2.55132 1.14974L2.55203 1.14933C2.89654 0.950374 3.32024 0.950046 3.66606 1.14941C3.66615 1.14946 3.66624 1.14952 3.66634 1.14957L29.4473 16.0334C29.4474 16.0334 29.4475 16.0335 29.4475 16.0335C29.7922 16.233 30.0045 16.6013 30.0045 17.0005C30.0045 17.4007 29.7929 17.7671 29.4489 17.9654L29.4482 17.9658L3.66664 32.8499C3.49293 32.95 3.30043 32.9998 3.10898 32.9998C2.91254 32.9998 2.7233 32.9505 2.55698 32.8532L2.55132 32.8499C2.20725 32.6516 1.99487 32.2843 1.99487 31.8857V2.11393C1.99487 1.71531 2.20725 1.34807 2.55132 1.14974Z" stroke="white" stroke-width="2"/>
</svg>
