<svg width="32" height="32" viewBox="0 0 32 32" xmlns="http://www.w3.org/2000/svg">
<path d="M7 30C7.55228 30 8 30.4477 8 31V31C8 31.5523 7.55228 32 7 32H1C0.447688 32 0 31.5523 0 31V25C0 24.4477 0.447715 24 1 24V24C1.55228 24 2 24.4477 2 25V25.3444C2 26.5421 3.44809 27.1419 4.295 26.295L10.585 20.005C10.9744 19.6156 11.6056 19.6156 11.995 20.005V20.005C12.3844 20.3944 12.3844 21.0256 11.995 21.415L5.705 27.705C4.85809 28.5519 5.45791 30 6.65562 30H7Z" fill="white"/>
<path d="M31 32H25C24.4477 32 24 31.5523 24 31V31C24 30.4477 24.4477 30 25 30H25.3444C26.5421 30 27.1419 28.5519 26.295 27.705L20.005 21.415C19.6156 21.0256 19.6156 20.3944 20.005 20.005V20.005C20.3943 19.6156 21.0256 19.6156 21.415 20.005L27.705 26.295C28.5519 27.1419 30 26.5421 30 25.3444V25C30 24.4477 30.4477 24 31 24V24C31.5523 24 32 24.4477 32 25V31C32 31.5523 31.5523 32 31 32Z" fill="white"/>
<path d="M30 6.65569C30 5.45798 28.5519 4.85816 27.705 5.70507L21.415 11.9951C21.0256 12.3844 20.3943 12.3844 20.005 11.9951V11.9951C19.6156 11.6057 19.6156 10.9744 20.005 10.5851L26.295 4.29507C27.1419 3.44816 26.5421 2.00007 25.3444 2.00007H25C24.4477 2.00007 24 1.55236 24 1.00007V1.00007C24 0.447788 24.4477 7.24792e-05 25 7.24792e-05H31C31.5523 7.24792e-05 32 0.44776 32 1.00007V7.00007C32 7.55236 31.5523 8.00007 31 8.00007V8.00007C30.4477 8.00007 30 7.55236 30 7.00007V6.65569Z" fill="white"/>
<path d="M11.9977 11.9973C11.6073 12.3904 10.9717 12.3914 10.5802 11.9994L4.29428 5.70671C3.44803 4.85955 2 5.45889 2 6.6563V6.99996C2 7.55225 1.55228 7.99996 1 7.99996V7.99996C0.447715 7.99996 0 7.55225 0 6.99996V0.999962C0 0.447649 0.447688 -3.8147e-05 1 -3.8147e-05H7C7.55228 -3.8147e-05 8 0.447677 8 0.999962V0.999962C8 1.55225 7.55228 1.99996 7 1.99996H6.65562C5.45791 1.99996 4.85809 3.44805 5.705 4.29496L11.9952 10.5851C12.3848 10.9748 12.386 11.6062 11.9977 11.9973V11.9973Z" fill="white"/>
</svg>
